<?xml version="1.0" encoding="UTF-8"?>
<svg version="1.1" xmlns="http://www.w3.org/2000/svg" width="100" height="100">
<path d="M0 0 C1.63089521 1.49953268 3.18257461 3.05071839 4.72344971 4.64254761 C5.28827057 5.21065659 5.85309143 5.77876556 6.43502808 6.36408997 C7.61774118 7.55716336 8.79569959 8.75496741 9.96905518 9.95724487 C11.76925413 11.80179939 13.58273497 13.63241203 15.39923096 15.46090698 C16.5497553 16.62484534 17.69952249 17.78953271 18.84844971 18.95504761 C19.3900473 19.50403214 19.9316449 20.05301666 20.48965454 20.61863708 C25.12956435 25.37816509 25.12956435 25.37816509 25.88751221 29.35739136 C24.59097082 38.10904572 13.04492655 46.29481507 6.91583252 52.44430542 C5.12052076 54.24947611 3.33613984 56.06504115 1.55157471 57.88082886 C0.40900183 59.0299193 -0.73420417 60.17838063 -1.87811279 61.32614136 C-2.40938782 61.86976318 -2.94066284 62.41338501 -3.48803711 62.97348022 C-7.26975085 66.73239136 -7.26975085 66.73239136 -10.61248779 66.73239136 C-10.03233887 63.48082832 -9.12080387 61.87748275 -6.76092529 59.58786011 C-6.16360596 59.00045044 -5.56628662 58.41304077 -4.9508667 57.80783081 C-4.30295166 57.18481079 -3.65503662 56.56179077 -2.98748779 55.91989136 C-2.32539307 55.26915649 -1.66329834 54.61842163 -0.98114014 53.94796753 C1.85138724 51.16450703 4.70129536 48.39908171 7.54962158 45.63180542 C9.62665303 43.60893261 11.69472244 41.5772031 13.76251221 39.54489136 C14.41042725 38.92187134 15.05834229 38.29885132 15.72589111 37.6569519 C16.32321045 37.06954224 16.92052979 36.48213257 17.53594971 35.87692261 C18.32751465 35.10892334 18.32751465 35.10892334 19.1350708 34.32540894 C20.63296345 32.4201946 21.17753994 31.14929239 21.38751221 28.73239136 C19.51439944 26.33704598 17.68538974 24.30611101 15.53594971 22.18161011 C14.92490387 21.56340897 14.31385803 20.94520782 13.68429565 20.30827332 C12.38735488 19.00354202 11.08395931 17.70520038 9.77471924 16.41281128 C7.77177719 14.42906754 5.79983931 12.41781503 3.82891846 10.40231323 C2.5663673 9.13947168 1.30209898 7.87834409 0.03594971 6.61911011 C-0.55384674 6.01403122 -1.14364319 5.40895233 -1.75131226 4.78553772 C-3.61565787 2.90566051 -3.61565787 2.90566051 -6.61248779 0.73239136 C-10.82249583 0.94563901 -12.82248937 2.4413993 -15.74432373 5.36251831 C-16.52152771 6.13034134 -17.29873169 6.89816437 -18.0994873 7.68925476 C-18.92362122 8.52462265 -19.74775513 9.35999054 -20.59686279 10.22067261 C-21.45306213 11.07541672 -22.30926147 11.93016083 -23.19140625 12.81080627 C-24.99822532 14.61928469 -26.80009507 16.43271946 -28.59735107 18.2507019 C-31.35365314 21.03596388 -34.12813399 23.8020911 -36.90545654 26.56637573 C-38.65787421 28.32503044 -40.40921355 30.08476044 -42.15936279 31.84567261 C-42.99159363 32.6749678 -43.82382446 33.504263 -44.68127441 34.35868835 C-45.44586975 35.13596786 -46.21046509 35.91324738 -46.99822998 36.71408081 C-47.67375916 37.39501297 -48.34928833 38.07594513 -49.04528809 38.7775116 C-50.69145087 40.83088763 -51.32320428 42.13056904 -51.61248779 44.73239136 C-50.55510559 46.6105357 -50.55510559 46.6105357 -48.80780029 48.32614136 C-48.15843506 49.02094604 -47.50906982 49.71575073 -46.84002686 50.43161011 C-46.10493896 51.19086792 -45.36985107 51.95012573 -44.61248779 52.73239136 C-43.43637939 53.97955933 -43.43637939 53.97955933 -42.23651123 55.25192261 C-39.68082092 57.94002694 -37.08897515 60.58863464 -34.48748779 63.23239136 C-33.16684326 64.60911011 -33.16684326 64.60911011 -31.81951904 66.01364136 C-30.96487061 66.87989136 -30.11022217 67.74614136 -29.22967529 68.63864136 C-28.46252197 69.42561401 -27.69536865 70.21258667 -26.90496826 71.02340698 C-24.72471893 72.93295838 -24.72471893 72.93295838 -21.94891357 73.11325073 C-19.426209 72.93553377 -19.426209 72.93553377 -17.61248779 70.73239136 C-16.62248779 70.73239136 -15.63248779 70.73239136 -14.61248779 70.73239136 C-14.98075357 73.31583158 -15.33767006 74.48122074 -17.29217529 76.26754761 C-18.01662842 76.77157104 -18.74108154 77.27559448 -19.48748779 77.79489136 C-24.59429771 81.53934144 -28.73249711 85.85824931 -33.03436279 90.47457886 C-35.76998583 92.87032145 -36.99565989 93.74376503 -40.61248779 93.73239136 C-44.88618848 91.56880467 -48.17396606 88.53648341 -51.56951904 85.21676636 C-52.11734543 84.68271179 -52.66517181 84.14865723 -53.229599 83.59841919 C-54.37952865 82.47166164 -55.52656338 81.3419428 -56.6708374 80.20944214 C-58.42176202 78.4855673 -60.19518381 76.78717547 -61.96990967 75.08786011 C-63.08792444 73.98649417 -64.20451139 72.88367655 -65.31951904 71.77926636 C-65.85067825 71.27796204 -66.38183746 70.77665771 -66.92909241 70.26016235 C-69.63585106 67.52028498 -70.58524682 65.92570936 -71.12811279 62.07321167 C-70.5882411 58.57529301 -70.23338542 57.52811334 -67.65545654 55.23239136 C-67.03735107 54.65489136 -66.41924561 54.07739136 -65.78240967 53.48239136 C-65.12821045 52.90489136 -64.47401123 52.32739136 -63.79998779 51.73239136 C-62.51329408 50.57604475 -61.23569756 49.40948561 -59.96795654 48.23239136 C-59.39714355 47.72707886 -58.82633057 47.22176636 -58.23822021 46.70114136 C-56.40631789 44.70547012 -56.40631789 44.70547012 -55.47283936 41.61471558 C-53.22835567 36.06353214 -48.67975086 32.24940288 -44.49139404 28.11520386 C-43.59508774 27.21744232 -42.69878143 26.31968079 -41.77531433 25.39471436 C-39.88444438 23.50550022 -37.990199 21.62067874 -36.08880615 19.74215698 C-33.65461136 17.33644723 -31.23641034 14.91537303 -28.82278538 12.4890461 C-26.51162294 10.16925673 -24.18864342 7.86138655 -21.86639404 5.55270386 C-20.9996254 4.68299957 -20.13285675 3.81329529 -19.23982239 2.91723633 C-18.42895676 2.11905487 -17.61809113 1.32087341 -16.78265381 0.49850464 C-16.07222427 -0.20652191 -15.36179474 -0.91154846 -14.62983704 -1.63793945 C-9.5444345 -5.74606494 -4.75810082 -3.74043744 0 0 Z M-61.79998779 54.48239136 C-62.37168701 55.02121948 -62.94338623 55.56004761 -63.53240967 56.11520386 C-65.37687717 57.87750487 -65.37687717 57.87750487 -67.61248779 60.73239136 C-67.58982915 65.06367762 -64.08008149 67.750563 -61.22186279 70.62692261 C-60.40942108 71.45434212 -60.40942108 71.45434212 -59.58056641 72.29847717 C-58.43454006 73.45966843 -57.28442916 74.61684072 -56.1305542 75.77023315 C-54.36673429 77.54062903 -52.62829132 79.3336148 -50.88983154 81.12887573 C-49.77281686 82.25468998 -48.65437367 83.37908906 -47.53436279 84.50192261 C-47.01646179 85.04138016 -46.49856079 85.58083771 -45.96496582 86.13664246 C-42.96161648 89.10156503 -42.96161648 89.10156503 -38.92327881 89.71578979 C-35.52358643 88.26898991 -33.27911379 85.82113291 -30.79998779 83.16989136 C-30.29789795 82.64975464 -29.79580811 82.12961792 -29.27850342 81.59371948 C-28.04719652 80.31550565 -26.82854709 79.02511989 -25.61248779 77.73239136 C-30.53533644 71.76301876 -35.88839015 66.27029191 -41.35467529 60.80490112 C-42.87841292 59.27894302 -44.39393209 57.74510991 -45.90936279 56.21090698 C-46.8776245 55.23971679 -47.84635708 54.26899577 -48.81561279 53.29879761 C-49.68863037 52.42167114 -50.56164795 51.54454468 -51.46112061 50.64083862 C-55.98232126 46.63014576 -58.3554045 51.07348269 -61.79998779 54.48239136 Z " fill="#FFFFFF" transform="translate(72.61248779296875,5.267608642578125)"/>
<path d="M0 0 C-0.58469446 3.37515573 -1.65401027 5.03799829 -4.0546875 7.453125 C-4.66957031 8.071875 -5.28445312 8.690625 -5.91796875 9.328125 C-6.56378906 9.96234375 -7.20960937 10.5965625 -7.875 11.25 C-8.51308594 11.8996875 -9.15117188 12.549375 -9.80859375 13.21875 C-10.42605469 13.83234375 -11.04351562 14.4459375 -11.6796875 15.078125 C-12.24413574 15.63918945 -12.80858398 16.20025391 -13.39013672 16.77832031 C-15 18 -15 18 -18 18 C-17.41530554 14.62484427 -16.34598973 12.96200171 -13.9453125 10.546875 C-13.33042969 9.928125 -12.71554688 9.309375 -12.08203125 8.671875 C-11.43621094 8.03765625 -10.79039063 7.4034375 -10.125 6.75 C-9.48691406 6.1003125 -8.84882812 5.450625 -8.19140625 4.78125 C-7.57394531 4.16765625 -6.95648438 3.5540625 -6.3203125 2.921875 C-5.75586426 2.36081055 -5.19141602 1.79974609 -4.60986328 1.22167969 C-3 0 -3 0 0 0 Z " fill="#FFFFFF" transform="translate(50,24)"/>
<path d="M0 0 C0.99 0 1.98 0 3 0 C2.43628586 3.26954202 1.50037734 4.82575883 -1 7 C-1.99 6.67 -2.98 6.34 -4 6 C-2.84826645 3.53199953 -1.95216435 1.95216435 0 0 Z " fill="#FFFFFF" transform="translate(54,17)"/>
</svg>
