<svg xmlns="http://www.w3.org/2000/svg" xmlns:xlink="http://www.w3.org/1999/xlink" viewBox="0,0,256,256" width="60px" height="60px" fill-rule="nonzero"><g fill="#fffcfc" fill-rule="nonzero" stroke="none" stroke-width="1.5" stroke-linecap="butt" stroke-linejoin="miter" stroke-miterlimit="10" stroke-dasharray="" stroke-dashoffset="0" font-family="none" font-weight="none" font-size="none" text-anchor="none" style="mix-blend-mode: normal"><g transform="scale(4.26667,4.26667)"><path d="M32.92578,4.9668c-0.59313,-0.00713 -1.18794,0.02973 -1.77344,0.05273c-1.275,0.05 -2.55022,0.11159 -3.82422,0.18359c-2.589,0.146 -5.17386,0.33631 -7.75586,0.57031c-2.132,0.193 -4.81517,0.11056 -6.45117,1.72656c-0.627,0.619 -1.03655,1.46952 -1.06055,2.35352c-0.007,0.05 -0.03025,0.08758 -0.03125,0.14258c-0.107,10.254 -1.32102,20.46761 -1.29102,30.72461c0.007,2.476 0.02116,4.99012 0.28516,7.45313c0.114,1.062 0.35484,2.11078 1.08984,2.92578c0.7,0.775 1.7147,1.09856 2.7207,1.22656c1.165,0.148 2.35825,0.11486 3.53125,0.13086c1.278,0.017 2.55694,0.02453 3.83594,0.01953c2.557,-0.011 5.11297,-0.06788 7.66797,-0.17187c4.48,-0.183 9.51319,-0.16448 13.24219,-3.02148c1.583,-1.212 2.84548,-2.88533 3.27148,-4.86133c0.52,-2.404 0.09636,-4.99592 -0.05664,-7.41992c-0.326,-5.166 -0.65156,-10.33205 -0.97656,-15.49805c-0.16,-2.538 -0.24137,-5.09495 -0.48437,-7.62695c-0.109,-1.14 -0.59245,-1.96661 -1.43945,-2.72461c-0.919,-0.824 -1.89114,-1.5937 -2.86914,-2.3457c-0.956,-0.734 -1.9345,-1.43647 -2.9375,-2.10547c-0.914,-0.609 -1.85955,-1.23944 -2.93555,-1.52344c-0.574,-0.1515 -1.16469,-0.20381 -1.75781,-0.21094zM32.34766,6.97852c0.147,-0.004 0.28669,0.00191 0.42969,0.00391c-0.166,1.424 -0.30228,2.85506 -0.23828,4.28906c0.037,0.839 0.13817,1.68295 0.32617,2.50195c0.182,0.795 0.4238,1.66202 0.9668,2.29101c1.095,1.266 2.84066,0.82811 4.22266,0.41211c1.643,-0.495 3.26895,-1.04463 4.87695,-1.64062c0.036,0.57 0.07142,1.14094 0.10742,1.71094c0.076,1.198 0.15056,2.3967 0.22656,3.5957c0.3,4.753 0.59844,9.50481 0.89844,14.25781c0.149,2.366 0.35755,4.73547 0.43555,7.10547c0.063,1.979 -0.29169,3.78944 -1.67969,5.27344c-2.846,3.043 -7.30631,3.24545 -11.19531,3.43945c-4.737,0.236 -9.48066,0.30761 -14.22266,0.22461c-0.965,-0.017 -2.00131,0.0515 -2.94531,-0.1875c-0.892,-0.225 -1.28784,-0.79487 -1.46484,-1.67187c-0.21,-1.037 -0.19419,-2.14717 -0.24219,-3.20117c-0.054,-1.186 -0.08561,-2.37159 -0.09961,-3.55859c-0.114,-9.437 0.90508,-18.83672 1.20508,-28.26172c0.032,-1.008 0.05045,-2.01739 0.06445,-3.02539c0.029,-0.094 0.04716,-0.19097 0.03516,-0.29297c-0.242,-2.099 2.76297,-2.20775 4.16797,-2.34375c2.376,-0.23 4.75472,-0.42312 7.13672,-0.57812c2.326,-0.151 4.65728,-0.28175 6.98828,-0.34375zM32.38281,21.25781c-3.215,-0.043 -6.42184,0.22258 -9.58984,0.76758c-0.533,0.092 -0.83027,0.74647 -0.69727,1.23047c0.154,0.564 0.69452,0.79122 1.22852,0.69922c2.992,-0.514 6.02359,-0.73727 9.05859,-0.69727c1.287,0.017 1.288,-1.983 0,-2zM33.7168,26.39648c-4.63057,0.08384 -9.24703,0.73505 -13.72266,1.93555c-1.242,0.333 -0.71575,2.26369 0.53125,1.92969c4.953,-1.328 10.04878,-1.95323 15.17578,-1.86523c1.288,0.021 1.288,-1.978 0,-2c-0.66175,-0.01125 -1.32287,-0.01198 -1.98437,0zM28.46484,33.75195c-2.66926,0.0348 -5.33211,0.3193 -7.95898,0.8418c-1.261,0.251 -0.72775,2.17969 0.53125,1.92969c4.028,-0.8 8.14842,-0.97455 12.23242,-0.56055c0.538,0.054 1,-0.499 1,-1c0,-0.587 -0.46,-0.945 -1,-1c-1.59938,-0.162 -3.20313,-0.23182 -4.80469,-0.21094zM29.31836,40.02734c-3.257,0.105 -6.49275,0.65916 -9.59375,1.66016c-1.22,0.394 -0.69875,2.32473 0.53125,1.92773c2.939,-0.949 5.9755,-1.48889 9.0625,-1.58789c1.284,-0.041 1.29,-2.042 0,-2z"></path></g></g></svg>